<?xml version="1.0" standalone="no"?>
<!DOCTYPE svg PUBLIC "-//W3C//DTD SVG 20010904//EN"
 "http://www.w3.org/TR/2001/REC-SVG-20010904/DTD/svg10.dtd">
<svg version="1.0" xmlns="http://www.w3.org/2000/svg"
 width="251.000000pt" height="201.000000pt" viewBox="0 0 251.000000 201.000000"
 preserveAspectRatio="xMidYMid meet">

<g transform="translate(0.000000,201.000000) scale(0.100000,-0.100000)"
fill="#000000" stroke="none">
<path d="M1008 1857 c-12 -4 -28 -5 -35 -3 -7 3 -13 1 -13 -4 0 -6 -8 -10 -18
-10 -10 0 -22 -4 -28 -8 -5 -5 -25 -15 -44 -23 -19 -7 -43 -24 -53 -36 -10
-13 -23 -21 -28 -18 -5 4 -9 1 -9 -4 0 -6 -7 -11 -15 -11 -17 0 -38 -34 -27
-45 4 -4 -3 -5 -16 -2 -14 3 -20 1 -15 -6 4 -7 0 -8 -11 -4 -10 4 -15 3 -11
-3 3 -5 -6 -17 -20 -26 -20 -13 -23 -19 -14 -30 9 -11 7 -14 -9 -14 -11 0 -22
-7 -26 -15 -3 -8 -12 -15 -20 -15 -18 0 -15 -31 4 -47 13 -11 13 -12 0 -13
-13 0 -13 -1 0 -11 10 -7 11 -12 4 -15 -14 -6 -6 -44 8 -44 6 0 5 -7 -2 -15
-12 -15 -3 -21 24 -16 5 1 3 -6 -5 -15 -9 -12 -9 -15 -1 -10 6 4 12 3 12 -3 0
-5 -4 -12 -9 -16 -6 -3 -3 -29 5 -63 9 -31 19 -71 23 -89 6 -23 5 -38 -6 -53
-18 -25 -13 -73 12 -122 15 -31 9 -47 -17 -48 -18 0 -6 -20 12 -20 18 0 19 -5
13 -63 -5 -60 -4 -66 46 -165 28 -56 54 -102 57 -102 3 0 2 5 -2 12 -4 7 -3 8
5 4 6 -4 9 -12 6 -17 -7 -10 22 -55 71 -110 17 -20 41 -66 54 -103 12 -36 29
-70 37 -74 20 -12 12 -34 -36 -109 -33 -51 -43 -59 -86 -71 -26 -7 -46 -15
-43 -17 2 -2 21 0 41 6 21 5 41 8 45 5 4 -3 29 31 56 75 26 43 49 79 50 79 2
0 27 -34 55 -75 28 -41 57 -78 64 -82 7 -4 4 4 -5 17 -10 14 -29 45 -43 70
l-26 45 48 -47 c26 -26 60 -50 75 -53 35 -9 139 32 131 51 -6 16 77 96 136
130 23 15 51 33 60 43 10 9 30 26 44 38 15 13 27 30 27 38 0 8 4 15 8 15 5 0
15 11 22 25 19 36 32 27 52 -36 l18 -54 -6 61 c-5 58 8 138 25 148 4 3 18 -43
30 -102 32 -151 91 -320 91 -260 0 9 -4 19 -9 22 -6 4 -28 65 -37 106 0 3 -3
12 -7 20 -17 42 -47 237 -47 304 0 69 23 186 50 256 8 22 8 23 -3 6 -32 -50
-96 -85 -105 -58 -9 27 -19 9 -17 -32 1 -28 9 -51 22 -66 12 -12 19 -29 16
-37 -5 -12 -9 -10 -20 8 -13 23 -14 22 -10 -18 3 -24 1 -46 -4 -49 -5 -3 -9 2
-9 10 0 29 -19 26 -54 -9 -39 -39 -49 -43 -39 -18 5 13 2 15 -11 10 -16 -6
-15 -3 3 27 25 40 25 42 5 50 -22 8 -84 -59 -85 -93 l-1 -26 -8 25 c-4 14 -8
20 -9 15 -1 -6 -9 -15 -19 -22 -17 -10 -18 -7 -16 46 3 54 3 54 -12 -22 -8
-43 -21 -93 -29 -110 -8 -18 -13 -23 -11 -12 17 76 28 181 24 218 -5 41 -35
103 -46 93 -2 -3 2 -16 10 -28 22 -34 28 -78 19 -139 -11 -68 -40 -181 -52
-195 -5 -6 -5 -15 -1 -19 4 -5 2 -5 -5 -1 -6 3 -16 -2 -22 -11 -14 -24 -14
-10 0 21 7 14 15 23 20 20 4 -2 8 4 9 13 0 10 3 56 6 102 6 83 -8 167 -25 157
-5 -3 -17 4 -27 16 -11 11 -45 43 -76 69 -47 39 -55 50 -42 57 8 5 18 27 21
49 5 40 5 41 57 47 28 3 52 10 54 16 2 5 20 18 40 27 20 9 58 30 83 45 49 30
69 35 69 18 0 -6 9 -21 20 -33 18 -18 22 -20 30 -7 5 8 10 21 10 27 0 14 68
93 80 93 4 0 24 16 44 35 43 40 72 44 112 13 l29 -22 -21 25 c-16 18 -20 33
-17 61 3 20 -3 61 -12 90 -22 70 -22 72 -23 82 0 5 -6 12 -13 17 -7 4 -14 13
-15 21 -1 7 -12 34 -23 60 -15 34 -26 45 -37 41 -8 -3 -14 -2 -13 3 3 19 -1
47 -7 41 -3 -3 -16 5 -28 17 -11 13 -31 22 -43 21 -13 -1 -23 4 -23 11 0 6 -9
14 -20 17 -11 3 -20 0 -20 -6 0 -7 -5 -5 -10 3 -5 8 -10 11 -10 7 0 -5 -7 -1
-16 7 -8 9 -26 16 -38 16 -12 0 -26 3 -30 8 -10 10 -300 10 -328 -1z m211
-305 c16 -11 32 -18 35 -15 4 4 13 8 21 9 19 3 28 -34 22 -92 -4 -45 -3 -47
43 -80 38 -27 50 -43 60 -80 15 -54 14 -56 -73 -100 -33 -17 -52 -22 -64 -15
-10 5 -27 5 -45 -1 -16 -6 -32 -8 -35 -4 -3 3 7 9 24 12 26 5 30 10 29 36 -1
17 -10 36 -20 44 -26 18 -104 39 -201 54 -44 6 -87 13 -96 14 -24 5 -49 -43
-38 -73 9 -22 11 -22 22 -8 11 15 18 15 87 -3 41 -11 91 -20 111 -20 20 0 51
-5 68 -11 l33 -12 -28 -17 c-24 -16 -31 -17 -67 -4 -65 23 -117 5 -117 -39 0
-11 -3 -18 -6 -15 -3 4 -6 27 -6 53 0 36 -2 44 -12 36 -7 -6 -16 -7 -20 -3 -4
4 -7 2 -5 -3 5 -21 -15 -46 -47 -60 -31 -13 -38 -12 -79 6 -43 19 -67 39 -46
39 5 0 13 -4 16 -10 3 -5 11 -10 17 -10 6 0 6 6 -2 15 -10 12 -10 19 -2 27 7
7 12 8 12 2 0 -6 7 -19 16 -30 14 -18 15 -18 4 5 -8 14 -9 37 -4 60 l8 36 6
-40 c7 -37 7 -38 9 -8 0 17 4 40 7 50 5 15 4 15 -5 3 -9 -13 -11 -13 -12 0 0
8 -8 -1 -17 -20 -11 -24 -17 -30 -19 -19 -2 10 -14 20 -26 24 -21 6 -22 6 -2
15 13 6 15 9 5 9 -8 1 -28 -15 -43 -34 -31 -39 -46 -44 -48 -17 -1 9 -5 1 -10
-18 -6 -26 -7 -17 -5 37 2 49 11 90 27 127 22 50 26 54 49 49 14 -3 28 -11 33
-17 5 -8 9 -8 15 1 26 41 174 112 233 113 58 0 80 4 102 16 26 15 53 11 86
-14z m-172 -378 c-3 -3 -12 -4 -19 -1 -8 3 -5 6 6 6 11 1 17 -2 13 -5z m198
-14 c-11 -5 -15 -9 -10 -10 10 -1 -34 -29 -47 -30 -5 0 -8 7 -8 15 0 17 33 34
65 34 l20 0 -20 -9z m-439 -26 c43 -20 36 -29 -19 -25 -32 2 -52 -4 -80 -23
-39 -27 -44 -23 -26 18 21 44 69 56 125 30z m289 -9 c28 -27 30 -42 13 -80
-26 -57 -108 -35 -108 30 0 37 28 75 55 75 9 0 27 -11 40 -25z m63 18 c-10 -2
-26 -2 -35 0 -10 3 -2 5 17 5 19 0 27 -2 18 -5z m-230 -25 c6 -13 11 -17 11
-9 1 11 6 10 21 -4 22 -20 28 -41 8 -29 -6 4 1 -9 17 -30 16 -21 53 -50 86
-66 56 -29 117 -88 146 -143 14 -28 14 -29 -8 -22 -14 5 -19 3 -15 -3 4 -7 -5
-7 -30 0 -87 24 -324 -24 -324 -66 0 -7 -6 -19 -14 -26 -12 -9 -19 -4 -36 31
-18 35 -20 46 -11 67 17 36 5 39 -13 4 -19 -36 -8 -86 31 -134 16 -21 10 -17
-16 10 -23 24 -54 69 -70 100 -24 48 -28 65 -24 110 6 57 11 60 49 36 15 -11
36 -15 57 -11 31 5 32 4 32 -34 1 -45 -2 -48 -15 -16 -7 18 -9 19 -9 4 -1 -10
12 -32 28 -48 40 -39 93 -40 145 -1 90 65 100 77 87 100 -14 27 -47 46 -56 32
-3 -5 3 -10 14 -10 24 0 43 -30 31 -49 -4 -8 -31 -15 -61 -17 -39 -3 -59 -10
-71 -24 -21 -26 -40 -25 -67 4 l-22 24 20 67 c12 37 21 89 21 115 0 46 7 57
36 59 6 1 16 -9 22 -21z m-115 -50 c9 -7 20 -27 23 -45 5 -26 1 -37 -19 -57
-31 -31 -37 -32 -71 -5 -65 51 1 156 67 107z m47 2 c0 -5 -5 -10 -11 -10 -5 0
-7 5 -4 10 3 6 8 10 11 10 2 0 4 -4 4 -10z m190 -269 c-25 -14 -124 -34 -145
-28 -13 3 -7 5 15 7 19 1 51 8 70 15 41 16 85 20 60 6z m38 -34 c6 -5 12 -4
12 2 0 11 39 9 58 -3 19 -12 14 -29 -8 -23 -11 3 -23 1 -26 -4 -3 -5 -10 -7
-15 -3 -5 3 -16 0 -24 -6 -8 -6 -19 -9 -25 -5 -5 3 -10 2 -10 -2 0 -13 -81
-40 -115 -39 -21 1 -31 7 -33 20 -3 11 0 16 7 12 6 -4 11 -2 11 3 0 6 -5 11
-12 11 -6 0 -8 3 -5 6 4 4 13 1 22 -6 10 -8 15 -9 15 -1 0 15 27 14 33 -1 3
-8 6 -6 6 5 1 20 27 23 34 5 3 -8 6 -6 6 5 1 10 9 17 22 17 11 0 18 4 15 9 -7
11 13 9 32 -2z m172 -87 c0 -31 -22 -80 -33 -73 -6 3 -7 1 -3 -5 10 -16 -12
-54 -26 -46 -7 4 -8 3 -4 -4 4 -7 -4 -23 -18 -37 -14 -14 -28 -21 -31 -15 -3
6 -11 10 -16 10 -6 0 -7 -5 -3 -11 4 -8 -1 -9 -17 -3 -13 4 -40 9 -59 9 -72 3
-79 5 -74 19 4 10 14 12 38 6 25 -5 46 -2 80 13 57 24 52 37 -11 25 -70 -13
-164 -17 -157 -7 3 5 29 9 57 9 37 0 70 9 112 29 69 33 112 67 93 73 -8 3 -3
17 16 41 l29 37 13 -26 c8 -14 14 -34 14 -44z m7 48 c-3 -8 -6 -5 -6 6 -1 11
2 17 5 13 3 -3 4 -12 1 -19z m-412 -46 c19 -14 64 -112 54 -118 -5 -3 -8 -2
-7 3 2 5 -3 15 -9 23 -45 53 -63 79 -63 89 0 13 10 14 25 3z m302 -6 c-4 -11
-1 -13 11 -9 14 6 15 4 4 -9 -7 -8 -40 -28 -74 -43 -78 -35 -148 -31 -188 12
-18 20 -19 22 -3 9 19 -16 34 -17 100 -12 106 8 108 9 122 23 15 16 13 16 -39
-2 -43 -15 -129 -21 -116 -8 5 5 111 35 185 52 2 1 1 -6 -2 -13z m-291 -78
c14 -22 24 -42 21 -44 -6 -6 -38 32 -41 49 -1 8 -8 23 -16 33 -10 12 -11 15
-2 10 7 -4 24 -26 38 -48z m34 -68 c0 -5 -2 -10 -4 -10 -3 0 -8 5 -11 10 -3 6
-1 10 4 10 6 0 11 -4 11 -10z m310 -20 c-6 -11 -13 -20 -16 -20 -2 0 0 9 6 20
6 11 13 20 16 20 2 0 0 -9 -6 -20z"/>
<path d="M785 1384 c-16 -8 -37 -22 -45 -31 -10 -10 -2 -8 21 5 20 12 53 26
75 31 36 8 37 9 9 10 -16 0 -43 -6 -60 -15z"/>
<path d="M852 1376 c-40 -12 -73 -25 -73 -29 1 -4 1 -11 1 -16 0 -5 15 -9 34
-8 19 1 32 5 30 8 -2 4 24 12 59 19 34 7 57 15 51 17 -7 2 -42 -3 -79 -12 -36
-8 -74 -15 -83 -14 -23 1 77 27 163 44 70 13 70 13 20 13 -27 0 -83 -10 -123
-22z"/>
<path d="M1255 1220 c-10 -11 -13 -20 -7 -20 6 0 16 9 22 20 6 11 9 20 7 20
-2 0 -12 -9 -22 -20z"/>
<path d="M762 870 c-7 -11 -12 -25 -12 -32 0 -7 7 0 15 16 18 33 15 45 -3 16z"/>
<path d="M1644 1322 c-11 -9 -34 -35 -50 -57 -19 -27 -22 -35 -8 -22 11 9 29
17 40 17 15 0 16 2 5 9 -21 13 -4 31 30 31 35 0 69 -16 69 -32 0 -7 -5 -6 -15
2 -11 9 -9 -1 6 -44 22 -63 18 -98 -14 -133 -11 -13 -16 -23 -10 -23 15 0 43
34 43 53 0 9 4 19 10 22 5 3 7 18 5 33 -2 15 -7 49 -10 75 -10 77 -55 107
-101 69z"/>
<path d="M1763 1235 c0 -27 2 -38 4 -22 2 15 2 37 0 50 -2 12 -4 0 -4 -28z"/>
<path d="M1600 1215 c0 -19 36 -55 53 -54 10 0 10 2 0 6 -7 2 -13 11 -13 19 0
8 6 14 13 14 6 0 -1 7 -17 15 -35 18 -36 18 -36 0z"/>
<path d="M1581 1169 c-1 -15 6 -33 15 -40 12 -10 15 -24 10 -56 -7 -51 5 -55
36 -13 12 17 27 30 33 30 7 0 20 10 31 23 19 22 19 22 -2 5 -11 -10 -24 -18
-29 -18 -5 0 -19 -9 -31 -21 l-21 -20 4 25 c3 16 -2 37 -13 53 -11 16 -22 35
-26 43 -4 10 -7 6 -7 -11z"/>
<path d="M1712 1170 c0 -14 2 -19 5 -12 2 6 2 18 0 25 -3 6 -5 1 -5 -13z"/>
<path d="M1746 1053 c-6 -14 -5 -15 5 -6 7 7 10 15 7 18 -3 3 -9 -2 -12 -12z"/>
<path d="M1510 780 c0 -5 5 -10 10 -10 6 0 10 5 10 10 0 6 -4 10 -10 10 -5 0
-10 -4 -10 -10z"/>
<path d="M1741 427 c2 -2 29 -25 59 -52 l55 -49 -50 52 c-27 29 -54 52 -59 52
-5 0 -7 -1 -5 -3z"/>
<path d="M1772 250 c0 -14 2 -19 5 -12 2 6 2 18 0 25 -3 6 -5 1 -5 -13z"/>
</g>
</svg>
